<svg xmlns="http://www.w3.org/2000/svg" version="1.0" width="256" height="32" viewBox="0 0 512 64" xml:space="preserve"><rect width="100%" height="100%" fill="none"/><path fill="#949494" fill-rule="evenodd" d="M486.4 19.2A12.8 12.8 0 1 1 473.6 32a12.8 12.8 0 0 1 12.8-12.8zm-51.2 0A12.8 12.8 0 1 1 422.4 32a12.8 12.8 0 0 1 12.8-12.8zm-51.2 0A12.8 12.8 0 1 1 371.2 32 12.8 12.8 0 0 1 384 19.2zm-51.2 0A12.8 12.8 0 1 1 320 32a12.8 12.8 0 0 1 12.8-12.8zm-51.2 0A12.8 12.8 0 1 1 268.8 32a12.8 12.8 0 0 1 12.8-12.8zm-51.2 0A12.8 12.8 0 1 1 217.6 32a12.8 12.8 0 0 1 12.8-12.8zm-51.2 0A12.8 12.8 0 1 1 166.4 32a12.8 12.8 0 0 1 12.8-12.8zm-51.2 0A12.8 12.8 0 1 1 115.2 32 12.8 12.8 0 0 1 128 19.2zm-51.2 0A12.8 12.8 0 1 1 64 32a12.8 12.8 0 0 1 12.8-12.8zm-51.2 0A12.8 12.8 0 1 1 12.8 32a12.8 12.8 0 0 1 12.8-12.8z"/><g><path fill-rule="evenodd" d="M-119.6 10.24A21.76 21.76 0 0 1-97.84 32a21.76 21.76 0 0 1-21.76 21.76A21.76 21.76 0 0 1-141.36 32a21.76 21.76 0 0 1 21.76-21.76Zm-51.2 0A21.76 21.76 0 0 1-149.04 32a21.76 21.76 0 0 1-21.76 21.76A21.76 21.76 0 0 1-192.56 32a21.76 21.76 0 0 1 21.76-21.76Zm-51.2 0A21.76 21.76 0 0 1-200.24 32 21.76 21.76 0 0 1-222 53.76 21.76 21.76 0 0 1-243.76 32 21.76 21.76 0 0 1-222 10.24Zm-51.2 0A21.76 21.76 0 0 1-251.44 32a21.76 21.76 0 0 1-21.76 21.76A21.76 21.76 0 0 1-294.96 32a21.76 21.76 0 0 1 21.76-21.76Zm-51.2 0A21.76 21.76 0 0 1-302.64 32a21.76 21.76 0 0 1-21.76 21.76A21.76 21.76 0 0 1-346.16 32a21.76 21.76 0 0 1 21.76-21.76Zm-51.2 0A21.76 21.76 0 0 1-353.84 32a21.76 21.76 0 0 1-21.76 21.76A21.76 21.76 0 0 1-397.36 32a21.76 21.76 0 0 1 21.76-21.76Zm-51.2 0A21.76 21.76 0 0 1-405.04 32a21.76 21.76 0 0 1-21.76 21.76A21.76 21.76 0 0 1-448.56 32a21.76 21.76 0 0 1 21.76-21.76Zm-51.2 0A21.76 21.76 0 0 1-456.24 32 21.76 21.76 0 0 1-478 53.76 21.76 21.76 0 0 1-499.76 32 21.76 21.76 0 0 1-478 10.24Zm-51.2 0A21.76 21.76 0 0 1-507.44 32a21.76 21.76 0 0 1-21.76 21.76A21.76 21.76 0 0 1-550.96 32a21.76 21.76 0 0 1 21.76-21.76Zm-51.2 0A21.76 21.76 0 0 1-558.64 32a21.76 21.76 0 0 1-21.76 21.76A21.76 21.76 0 0 1-602.16 32a21.76 21.76 0 0 1 21.76-21.76Zm-51 2.56A19.2 19.2 0 0 1-612.2 32a19.2 19.2 0 0 1-19.2 19.2A19.2 19.2 0 0 1-650.6 32a19.2 19.2 0 0 1 19.2-19.2Zm-51 2.56A16.64 16.64 0 0 1-665.76 32a16.64 16.64 0 0 1-16.64 16.64A16.64 16.64 0 0 1-699.04 32a16.64 16.64 0 0 1 16.64-16.64Zm613.6-2.56A19.2 19.2 0 0 1-49.6 32a19.2 19.2 0 0 1-19.2 19.2A19.2 19.2 0 0 1-88 32a19.2 19.2 0 0 1 19.2-19.2Zm51.2 2.56A16.64 16.64 0 0 1-.96 32 16.64 16.64 0 0 1-17.6 48.64 16.64 16.64 0 0 1-34.24 32 16.64 16.64 0 0 1-17.6 15.36Z"/><animateTransform attributeName="transform" type="translate" values="44 0;95.2 0;146.4 0;197.6 0;248.8 0;300 0;351.2 0;402.4 0;453.6 0;504.8 0;556 0;607.2 0;658.4 0;709.6 0;760.8 0;812 0;863.2 0;914.4 0;965.6 0;1016.8 0;1068 0;1119.2 0;1170.4 0;1221.6 0;1272.8 0;1324 0" calcMode="discrete" dur="2160ms" repeatCount="indefinite"/></g></svg>